<?xml version="1.0" encoding="UTF-8" standalone="no"?>
<!-- Hand-drawn check 2. Generated by tools/generate-hand-art.mjs; the path
     is a sampled polyline, so edit the maths there rather than this file.
     Same roughening as the boxes so both read as the same hand. -->
<svg xmlns="http://www.w3.org/2000/svg" viewBox="0 0 130 130">
  <defs>
    <filter id="tick2" x="-14%" y="-14%" width="128%" height="128%" color-interpolation-filters="sRGB">
      <feTurbulence type="fractalNoise" baseFrequency="0.026" numOctaves="3" seed="47" result="warp"/>
      <feDisplacementMap in="SourceGraphic" in2="warp" scale="3.4" xChannelSelector="R" yChannelSelector="G" result="w"/>
      <feTurbulence type="fractalNoise" baseFrequency="0.12" numOctaves="3" seed="103" result="t"/>
      <feColorMatrix in="t" type="matrix" result="ta" values="0 0 0 0 0 0 0 0 0 0 0 0 0 0 0 1.7 1.05 0 0 -0.32"/>
      <feComposite in="w" in2="ta" operator="in" result="g"/>
      <feGaussianBlur in="g" stdDeviation="0.45"/>
    </filter>
  </defs>
  <path fill="#000" filter="url(#tick2)" d="M27.33,62.76 L28.08,64.19 L28.84,65.62 L29.59,67.05 L30.35,68.48 L31.11,69.91 L31.86,71.34 L32.62,72.77 L33.37,74.20 L34.13,75.63 L34.89,77.06 L35.64,78.49 L36.40,79.93 L37.15,81.36 L37.91,82.79 L38.67,84.22 L39.42,85.65 L40.18,87.08 L40.93,88.51 L41.69,89.94 L42.45,91.37 L43.20,92.80 L43.96,94.23 L44.71,95.66 L45.47,97.09 L46.23,98.52 L56.39,102.35 L60.98,97.19 L63.32,93.91 L65.66,90.63 L68.00,87.35 L70.34,84.07 L72.68,80.79 L75.02,77.51 L77.36,74.23 L79.70,70.95 L82.04,67.67 L84.39,64.39 L86.73,61.11 L89.07,57.83 L91.41,54.55 L93.75,51.27 L96.09,47.99 L98.43,44.70 L100.77,41.42 L103.11,38.14 L105.45,34.86 L107.79,31.58 L110.13,28.30 L112.47,25.02 L114.81,21.74 L117.15,18.46 L119.49,15.18 L116.51,12.82 L113.85,15.85 L111.19,18.87 L108.53,21.90 L105.87,24.93 L103.21,27.96 L100.55,30.98 L97.89,34.01 L95.23,37.04 L92.57,40.06 L89.91,43.09 L87.25,46.12 L84.59,49.15 L81.93,52.17 L79.27,55.20 L76.61,58.23 L73.96,61.26 L71.30,64.28 L68.64,67.31 L65.98,70.34 L63.32,73.36 L60.66,76.39 L58.00,79.42 L55.34,82.45 L52.68,85.47 L50.02,88.50 L49.61,89.65 L58.00,90.78 L56.99,89.52 L55.98,88.26 L54.96,87.00 L53.95,85.74 L52.94,84.48 L51.92,83.21 L50.91,81.95 L49.90,80.69 L48.89,79.43 L47.87,78.17 L46.86,76.91 L45.85,75.64 L44.83,74.38 L43.82,73.12 L42.81,71.86 L41.79,70.60 L40.78,69.34 L39.77,68.07 L38.75,66.81 L37.74,65.55 L36.73,64.29 L35.71,63.03 L34.70,61.77 L33.69,60.50 L32.67,59.24 Z"/>
</svg>
