<?xml version="1.0" encoding="UTF-8" standalone="no"?>
<!-- Hand-drawn scribble fill 1.
     Generated by tools/generate-hand-art.mjs; the path is a sampled polyline,
     so edit the maths there rather than this file. -->
<svg xmlns="http://www.w3.org/2000/svg" viewBox="0 0 130 130">
  <defs>
    <filter id="fill1" x="-14%" y="-14%" width="128%" height="128%" color-interpolation-filters="sRGB">
      <feTurbulence type="fractalNoise" baseFrequency="0.03" numOctaves="3" seed="41" result="warp"/>
      <feDisplacementMap in="SourceGraphic" in2="warp" scale="2.2" xChannelSelector="R" yChannelSelector="G" result="w"/>
      <feTurbulence type="fractalNoise" baseFrequency="0.14" numOctaves="3" seed="83" result="t"/>
      <feColorMatrix in="t" type="matrix" result="ta" values="0 0 0 0 0 0 0 0 0 0 0 0 0 0 0 1.7 1.05 0 0 -0.30"/>
      <feComposite in="w" in2="ta" operator="in" result="g"/>
      <feGaussianBlur in="g" stdDeviation="0.5"/>
    </filter>
  </defs>
  <g filter="url(#fill1)"><path fill="#000" fill-rule="nonzero" d="M40.64,49.78 L45.91,48.70 L52.00,48.97 L57.32,47.44 L61.33,46.27 L67.06,47.35 L73.01,46.54 L77.21,47.35 L82.39,49.41 L84.57,44.75 L80.31,50.80 L78.47,49.53 L72.77,51.25 L67.26,51.30 L62.45,51.38 L57.89,51.31 L52.35,50.24 L46.28,49.33 L35.83,53.91 L41.71,68.77 L51.22,68.27 L56.27,68.43 L61.63,68.41 L66.64,68.15 L72.36,68.92 L77.90,68.79 L82.88,68.30 L83.91,65.37 L80.69,73.19 L78.47,72.54 L73.10,70.93 L67.20,72.31 L62.74,73.34 L57.69,72.21 L52.49,71.64 L46.97,71.18 L36.86,75.75 L43.52,89.61 L52.88,89.58 L57.48,88.74 L62.87,89.45 L68.37,88.72 L73.75,90.32 L79.05,89.26 L84.53,90.58 L90.65,90.48 L90.01,80.63 L85.21,81.24 L79.76,80.26 L74.12,79.76 L68.58,80.04 L63.15,80.10 L57.61,79.36 L51.28,79.68 L49.71,82.01 L45.37,75.63 L45.98,80.20 L51.18,82.10 L56.71,81.84 L62.38,82.58 L68.64,82.56 L73.46,81.97 L78.82,81.64 L87.31,78.89 L93.97,64.92 L84.04,59.62 L78.06,58.57 L72.64,58.66 L67.41,58.62 L61.46,57.39 L55.86,58.69 L49.95,58.46 L48.51,61.20 L45.19,54.71 L45.71,59.79 L50.61,59.59 L56.03,61.88 L62.43,62.33 L68.58,61.94 L74.05,59.74 L79.31,60.41 L88.43,58.48 L93.23,44.02 L84.59,38.71 L78.94,36.97 L72.33,37.97 L67.46,38.68 L62.37,37.25 L55.56,36.08 L50.06,37.90 L45.32,38.62 L39.78,38.35 Z"/></g>
</svg>
