<?xml version="1.0" encoding="UTF-8" standalone="no"?>
<!DOCTYPE svg PUBLIC "-//W3C//DTD SVG 1.1//EN" "http://www.w3.org/Graphics/SVG/1.1/DTD/svg11.dtd">
<svg width="100%" height="100%" viewBox="0 0 151 151" version="1.1" xmlns="http://www.w3.org/2000/svg" xmlns:xlink="http://www.w3.org/1999/xlink" xml:space="preserve" xmlns:serif="http://www.serif.com/" style="fill-rule:evenodd;clip-rule:evenodd;stroke-linejoin:round;stroke-miterlimit:2;">
    <g transform="matrix(1,0,0,1,-3681,-4195)">
        <g id="status_invisible" transform="matrix(0.969455,0,0,1.02911,1618.39,1898.58)">
            <rect x="2127.75" y="2231.68" width="154.726" height="145.756" style="fill:none;"/>
            <g transform="matrix(0.96024,0,0,0.904574,-1237.72,-1606.95)">
                <path d="M3568.16,4324.73C3568.16,4323.98 3568.26,4323.22 3568.47,4322.46C3569.75,4317.89 3574.5,4315.22 3579.07,4316.5C3581.08,4317.06 3583.2,4317.36 3585.38,4317.36C3587.57,4317.36 3589.69,4317.06 3591.7,4316.5C3596.26,4315.22 3601.01,4317.89 3602.29,4322.46C3602.5,4323.22 3602.61,4323.98 3602.61,4324.73C3602.87,4325.82 3602.91,4326.98 3602.71,4328.16C3601.91,4332.83 3597.47,4335.98 3592.79,4335.17C3590.38,4334.76 3587.91,4334.55 3585.38,4334.55C3582.86,4334.55 3580.38,4334.76 3577.97,4335.17C3573.3,4335.98 3568.85,4332.83 3568.05,4328.16C3567.85,4326.98 3567.9,4325.82 3568.16,4324.73ZM3628.19,4369.51C3628.05,4365.29 3631.05,4361.5 3635.33,4360.77C3640,4359.97 3644.45,4363.11 3645.25,4367.79C3645.82,4371.14 3646.12,4374.59 3646.12,4378.1C3646.12,4382.85 3642.28,4386.69 3637.53,4386.69L3626.19,4386.69C3621.45,4386.69 3617.6,4382.84 3617.6,4378.1C3617.6,4373.36 3621.45,4369.51 3626.19,4369.51L3628.19,4369.51ZM3542.58,4369.51L3544.57,4369.51C3549.32,4369.51 3553.17,4373.36 3553.17,4378.1C3553.17,4382.84 3549.32,4386.69 3544.57,4386.69L3533.24,4386.69C3528.49,4386.69 3524.64,4382.85 3524.64,4378.1C3524.64,4374.59 3524.94,4371.14 3525.52,4367.79C3526.32,4363.11 3530.76,4359.97 3535.44,4360.77C3539.72,4361.5 3542.71,4365.29 3542.58,4369.51ZM3565.9,4306.92C3568.53,4310.86 3567.47,4316.2 3563.52,4318.84C3559.58,4321.47 3554.24,4320.4 3551.61,4316.46C3547.59,4310.45 3545.14,4303.31 3544.83,4295.62C3544.64,4290.88 3548.33,4286.88 3553.07,4286.69C3557.81,4286.49 3561.81,4290.19 3562,4294.93C3562.18,4299.35 3563.59,4303.46 3565.9,4306.92ZM3567.03,4279.45C3564.09,4283.17 3558.68,4283.8 3554.96,4280.85C3551.24,4277.91 3550.62,4272.5 3553.56,4268.78C3558.13,4263.01 3564.24,4258.51 3571.27,4255.9C3575.71,4254.25 3580.66,4256.52 3582.31,4260.97C3583.97,4265.41 3581.7,4270.36 3577.25,4272.02C3573.2,4273.52 3569.67,4276.12 3567.03,4279.45ZM3593.52,4272.02C3589.07,4270.36 3586.8,4265.41 3588.45,4260.97C3590.1,4256.52 3595.05,4254.25 3599.5,4255.9C3606.52,4258.51 3612.63,4263.01 3617.2,4268.78C3620.15,4272.5 3619.52,4277.91 3615.81,4280.85C3612.09,4283.8 3606.68,4283.17 3603.73,4279.45C3601.09,4276.12 3597.57,4273.52 3593.52,4272.02ZM3608.76,4294.93C3608.95,4290.19 3612.95,4286.49 3617.69,4286.69C3622.43,4286.88 3626.13,4290.88 3625.93,4295.62C3625.62,4303.31 3623.17,4310.45 3619.16,4316.46C3616.53,4320.4 3611.19,4321.47 3607.24,4318.84C3603.3,4316.2 3602.23,4310.86 3604.86,4306.92C3607.17,4303.46 3608.58,4299.35 3608.76,4294.93ZM3610.49,4342.52C3606.62,4339.78 3605.7,4334.41 3608.43,4330.54C3611.17,4326.66 3616.54,4325.75 3620.41,4328.48C3626.06,4332.48 3631,4337.42 3635,4343.07C3637.74,4346.94 3636.82,4352.31 3632.95,4355.05C3629.07,4357.79 3623.71,4356.87 3620.97,4352.99C3618.1,4348.94 3614.55,4345.39 3610.49,4342.52ZM3596.72,4369.51C3601.46,4369.51 3605.31,4373.36 3605.31,4378.1C3605.31,4382.84 3601.46,4386.69 3596.72,4386.69L3574.05,4386.69C3569.3,4386.69 3565.45,4382.84 3565.45,4378.1C3565.45,4373.36 3569.3,4369.51 3574.05,4369.51L3596.72,4369.51ZM3549.8,4352.99C3547.06,4356.87 3541.69,4357.79 3537.82,4355.05C3533.95,4352.31 3533.03,4346.94 3535.77,4343.07C3539.76,4337.42 3544.7,4332.48 3550.35,4328.48C3554.22,4325.75 3559.59,4326.66 3562.33,4330.54C3565.07,4334.41 3564.15,4339.78 3560.28,4342.52C3556.22,4345.39 3552.67,4348.94 3549.8,4352.99Z"/>
            </g>
        </g>
    </g>
</svg>
