<?xml version="1.0" encoding="UTF-8" standalone="no"?>
<!DOCTYPE svg PUBLIC "-//W3C//DTD SVG 1.1//EN" "http://www.w3.org/Graphics/SVG/1.1/DTD/svg11.dtd">
<svg width="100%" height="100%" viewBox="0 0 151 151" version="1.1" xmlns="http://www.w3.org/2000/svg" xmlns:xlink="http://www.w3.org/1999/xlink" xml:space="preserve" xmlns:serif="http://www.serif.com/" style="fill-rule:evenodd;clip-rule:evenodd;stroke-linecap:round;stroke-linejoin:round;stroke-miterlimit:0;">
    <g transform="matrix(1,0,0,1,-2644,-4485)">
        <g id="status_unconscious" transform="matrix(0.969455,0,0,1.02911,581.809,2189.29)">
            <rect x="2127.75" y="2231.68" width="154.726" height="145.756" style="fill:none;"/>
            <g transform="matrix(1.0888,0,0,0.934425,-750.978,-1959.47)">
                <path d="M2769.05,4550.44L2760.57,4599.1C2730.28,4621.26 2686.57,4623.9 2686.57,4623.9L2681.14,4593.4C2672.83,4594.07 2666.09,4590.71 2660.95,4583.26L2678.85,4553.48C2678.85,4527.1 2696.76,4502.64 2722.47,4502.64C2748.18,4502.64 2769.05,4524.06 2769.05,4550.44Z" style="fill:none;stroke:black;stroke-width:15.85px;"/>
            </g>
            <g transform="matrix(1.15114,0,0,1.15114,-321.017,-349.549)">
                <g transform="matrix(0.693525,0,0,0.653321,676.823,-486.861)">
                    <path d="M2221.56,4247.44L2175.65,4293.35" style="fill:none;stroke:black;stroke-width:20.67px;stroke-linejoin:miter;"/>
                </g>
                <g transform="matrix(0.693525,0,0,-0.653321,676.823,5093.01)">
                    <path d="M2221.56,4247.44L2175.65,4293.35" style="fill:none;stroke:black;stroke-width:20.67px;stroke-linejoin:miter;"/>
                </g>
            </g>
        </g>
    </g>
</svg>
